<svg width="698" height="718" viewBox="0 0 698 718" fill="none" xmlns="http://www.w3.org/2000/svg">
<path opacity="0.8" d="M625.834 325.958C625.834 325.958 624.556 252.834 559.098 211.806C493.641 170.778 434.054 223.205 371.27 221.049C338.421 219.942 298.658 168.528 267.17 160.771C166.505 136.02 74.7673 230.076 80.3912 310.244C85.2226 379.656 128.677 434.675 213.765 482.071C298.853 529.466 357 565.78 463.83 549.337C570.66 532.893 622.803 419.934 625.834 325.958Z" fill="#265E70"/>
<path opacity="0.8" d="M605.834 385.958C605.834 385.958 604.556 312.834 539.098 271.806C473.641 230.778 414.054 283.205 351.27 281.049C318.421 279.942 278.658 228.528 247.17 220.771C146.505 196.02 54.7673 290.076 60.3912 370.244C65.2226 439.656 108.677 494.675 193.765 542.071C278.853 589.466 337 625.78 443.83 609.337C550.66 592.893 602.803 479.934 605.834 385.958Z" fill="#4DBCE9" fill-opacity="0.5"/>
</svg>
